<?xml version="1.0" standalone="no"?>
<!DOCTYPE svg PUBLIC "-//W3C//DTD SVG 20010904//EN"
 "http://www.w3.org/TR/2001/REC-SVG-20010904/DTD/svg10.dtd">
<svg version="1.0" xmlns="http://www.w3.org/2000/svg"
 width="512.000000pt" height="512.000000pt" viewBox="0 0 512.000000 512.000000"
 preserveAspectRatio="xMidYMid meet">

<g transform="translate(0.000000,512.000000) scale(0.100000,-0.100000)"
fill="#ffffff" stroke="none">
<path d="M1785 4416 c-40 -18 -73 -56 -85 -96 -6 -22 -3 -124 12 -321 l22
-289 -31 -33 c-71 -76 -158 -239 -187 -352 -8 -33 -65 -429 -127 -880 -90
-664 -112 -843 -112 -940 0 -185 37 -351 116 -515 71 -149 203 -257 355 -289
69 -14 1566 -15 1643 -1 145 27 289 142 354 283 74 161 112 360 102 541 -6
106 -220 1712 -238 1781 -31 120 -96 252 -170 344 l-49 61 20 258 c11 141 20
277 20 302 0 59 -28 110 -76 137 -37 21 -51 23 -237 23 -177 0 -202 -2 -236
-20 -68 -34 -81 -68 -94 -246 l-11 -156 -45 7 c-58 9 -297 9 -344 0 -32 -6
-37 -5 -38 11 0 11 -6 83 -13 162 -13 152 -21 172 -80 216 -25 19 -43 21 -234
23 -158 2 -214 0 -237 -11z m406 -181 c3 -27 9 -96 13 -151 l7 -102 -97 -33
c-53 -18 -131 -53 -172 -76 -42 -24 -76 -42 -77 -40 -5 7 -32 443 -28 450 2 4
82 6 176 5 l172 -3 6 -50z m1099 23 c0 -45 -30 -421 -34 -425 -1 -2 -36 16
-78 40 -41 23 -119 58 -172 76 -76 26 -96 37 -92 50 2 9 7 66 11 126 3 61 8
122 11 138 l6 27 174 0 174 0 0 -32z m-540 -389 c361 -52 617 -252 709 -553
13 -43 64 -387 137 -920 108 -798 115 -859 111 -971 -6 -140 -38 -279 -89
-382 l-33 -68 -7 110 c-16 240 -179 1721 -198 1803 -22 92 -88 241 -141 319
-106 155 -255 258 -456 315 -65 19 -103 23 -223 23 -160 0 -237 -16 -366 -75
-232 -105 -405 -337 -463 -622 -11 -50 -172 -1553 -187 -1743 l-7 -90 -33 71
c-68 147 -101 352 -84 516 20 193 221 1645 235 1698 21 81 87 206 144 276 113
136 266 225 478 275 151 36 303 42 473 18z m-22 -479 c264 -63 442 -248 518
-539 23 -88 194 -1740 194 -1874 l0 -114 -27 -14 c-23 -12 -162 -14 -823 -16
-730 -2 -799 -1 -845 15 l-50 17 -8 65 c-12 96 -6 169 88 1055 69 658 90 827
111 900 58 207 183 367 348 446 164 79 328 99 494 59z"/>
<path d="M2170 2980 c-27 -27 -25 -66 5 -95 l24 -25 361 0 361 0 24 25 c30 29
32 68 5 95 -19 19 -33 20 -390 20 -357 0 -371 -1 -390 -20z"/>
</g>
</svg>
